<svg width="81" height="86" viewBox="0 0 81 86" fill="none" xmlns="http://www.w3.org/2000/svg">
<path d="M47.6551 43.4977C55.5634 43.4977 61.9743 37.0868 61.9743 29.1786C61.9743 21.2703 55.5634 14.8594 47.6551 14.8594C39.7469 14.8594 33.3359 21.2703 33.3359 29.1786C33.3359 37.0868 39.7469 43.4977 47.6551 43.4977Z" fill="#FCCF23"/>
<path d="M48.8156 28.1537V22.6068C49.3124 22.83 49.7343 23.1918 50.0307 23.6488C50.327 24.1058 50.4852 24.6386 50.4863 25.1833C50.4863 25.4915 50.6088 25.7871 50.8267 26.0051C51.0446 26.223 51.3402 26.3454 51.6484 26.3454C51.9567 26.3454 52.2522 26.223 52.4702 26.0051C52.6881 25.7871 52.8106 25.4915 52.8106 25.1833C52.8085 24.0187 52.4127 22.8889 51.6874 21.9776C50.9622 21.0663 49.9501 20.4271 48.8156 20.1637V19.05C48.8156 18.7418 48.6931 18.4463 48.4752 18.2283C48.2572 18.0104 47.9617 17.8879 47.6534 17.8879C47.3452 17.8879 47.0496 18.0104 46.8317 18.2283C46.6138 18.4463 46.4913 18.7418 46.4913 19.05V20.1637C45.3561 20.4255 44.3431 21.0645 43.6177 21.9762C42.8924 22.8879 42.4975 24.0186 42.4975 25.1837C42.4975 26.3487 42.8924 27.4794 43.6177 28.3911C44.3431 29.3028 45.3561 29.9418 46.4913 30.2036V35.7506C45.9945 35.5273 45.5726 35.1655 45.2762 34.7085C44.9799 34.2515 44.8217 33.7187 44.8206 33.174C44.8206 32.8658 44.6981 32.5702 44.4802 32.3523C44.2622 32.1343 43.9667 32.0119 43.6584 32.0119C43.3502 32.0119 43.0546 32.1343 42.8367 32.3523C42.6188 32.5702 42.4963 32.8658 42.4963 33.174C42.4984 34.3387 42.8942 35.4684 43.6195 36.3797C44.3447 37.291 45.3568 37.9303 46.4913 38.1936V39.3073C46.4913 39.6155 46.6138 39.9111 46.8317 40.129C47.0496 40.347 47.3452 40.4694 47.6534 40.4694C47.9617 40.4694 48.2572 40.347 48.4752 40.129C48.6931 39.9111 48.8156 39.6155 48.8156 39.3073V38.1936C49.9508 37.9318 50.9638 37.2928 51.6891 36.3811C52.4145 35.4694 52.8094 34.3387 52.8094 33.1737C52.8094 32.0086 52.4145 30.8779 51.6891 29.9662C50.9638 29.0545 49.9508 28.4155 48.8156 28.1537ZM44.8206 25.1833C44.8217 24.6386 44.9799 24.1058 45.2762 23.6488C45.5726 23.1918 45.9945 22.83 46.4913 22.6068V27.7592C45.9946 27.536 45.5728 27.1743 45.2765 26.7174C44.9802 26.2605 44.8219 25.7279 44.8206 25.1833ZM48.8156 35.7506V30.5968C49.313 30.8193 49.7354 31.181 50.0318 31.6382C50.3281 32.0955 50.4859 32.6287 50.4859 33.1737C50.4859 33.7186 50.3281 34.2518 50.0318 34.7091C49.7354 35.1664 49.313 35.5281 48.8156 35.7506Z" fill="#FCA40B"/>
<path d="M13.4844 48.8423H23.9314V71.6781H13.4844V48.8423Z" fill="url(#paint0_linear)"/>
<path d="M23.9302 52.9512C26.1529 51.3105 28.8354 50.4106 31.5979 50.379C34.3604 50.3475 37.0629 51.1858 39.3225 52.7753L39.5177 52.9127H46.5827C48.3263 52.9127 49.9984 53.6054 51.2313 54.8383C52.4643 56.0712 53.1569 57.7434 53.1569 59.4869L64.2155 51.0733C64.5728 50.8016 65.0092 50.6544 65.458 50.6543C65.8478 50.6542 66.2296 50.7651 66.5586 50.9741C66.8877 51.1831 67.1504 51.4814 67.3162 51.8342C67.4819 52.1871 67.5437 52.5798 67.4944 52.9664C67.4451 53.3531 67.2867 53.7178 67.0378 54.0177L55.3503 68.1118C53.9435 69.8081 52.0645 71.0482 49.9517 71.6748C47.8389 72.3014 45.5877 72.2863 43.4835 71.6313L30.9832 67.7419L23.9302 67.9411V52.9512Z" fill="#FABC91"/>
<path d="M53.1586 60.6484H40.3076C39.9994 60.6484 39.7038 60.526 39.4859 60.3081C39.2679 60.0901 39.1455 59.7945 39.1455 59.4863C39.1455 59.1781 39.2679 58.8825 39.4859 58.6646C39.7038 58.4467 39.9994 58.3242 40.3076 58.3242H53.1586C53.4668 58.3242 53.7624 58.4467 53.9803 58.6646C54.1982 58.8825 54.3207 59.1781 54.3207 59.4863C54.3207 59.7945 54.1982 60.0901 53.9803 60.3081C53.7624 60.526 53.4668 60.6484 53.1586 60.6484Z" fill="#FAA875"/>
<defs>
<linearGradient id="paint0_linear" x1="14.2612" y1="56.5115" x2="27.5423" y2="66.3783" gradientUnits="userSpaceOnUse">
<stop stop-color="#272671"/>
<stop offset="1" stop-color="#7BB3CB"/>
</linearGradient>
</defs>
</svg>
